<?xml version="1.0" encoding="UTF-8" standalone="no"?>
<!-- Created with Inkscape (http://www.inkscape.org/) -->

<svg
   width="153.66528"
   height="54.227753"
   viewBox="0 0 40.657272 14.347759"
   version="1.1"
   id="svg1"
   xmlns="http://www.w3.org/2000/svg"
   xmlns:svg="http://www.w3.org/2000/svg">
  <defs
     id="defs1" />
  <g
     id="layer1"
     transform="translate(-0.83801784,-13.992787)">
    <path
       d="m 4.4483243,14.749994 c -0.5480446,0.522376 -1.1564791,1.217341 -1.5750877,1.799073 -0.1171995,0.162876 -0.121497,0.172574 -0.091814,0.208347 0.017123,0.02063 0.1881392,0.181806 0.3800362,0.358114 0.1918969,0.17631 0.3664939,0.337742 0.3879961,0.358737 l 0.039088,0.03816 0.1992717,-0.265999 c 0.3029846,-0.404421 0.5453416,-0.69688 0.8359622,-1.008725 0.2429923,-0.260735 0.6738095,-0.685715 0.6953694,-0.685976 0.025741,-3.01e-4 0.7166948,0.684359 0.8998036,0.891631 1.1703347,1.324776 1.9519913,2.775594 2.2919756,4.254063 0.2125519,0.924309 0.240687,1.655745 0.094323,2.453314 -0.2161718,1.178012 -0.7615013,2.071539 -1.6995785,2.784766 -0.099565,0.07571 -0.3712812,0.261112 -0.603767,0.412016 L 5.8792248,26.621868 5.8688939,24.658867 C 5.8589038,22.755947 5.8573961,22.687425 5.8179223,22.420852 5.7368847,21.873752 5.603452,21.406272 5.403604,20.969278 5.1114576,20.330453 4.7870918,19.896976 4.2453493,19.42149 4.0469493,19.247354 3.9091935,19.120669 3.6118502,18.838909 3.5074653,18.739996 3.3499376,18.591609 3.2617979,18.509173 3.1736705,18.426732 2.9094282,18.179438 2.6746369,17.959611 2.4398465,17.739787 2.2396343,17.559931 2.2297211,17.559931 c -0.043509,0 -0.4194303,0.728503 -0.6496766,1.258994 -0.2666242,0.614308 -0.4929559,1.348426 -0.61248103,1.986538 -0.29042948,1.5505 -0.0896823,3.064193 0.57363893,4.325334 0.3903524,0.742159 0.9377186,1.367234 1.6477161,1.881659 0.2131727,0.154453 0.6158059,0.409157 0.6473078,0.409477 0.00755,0 0.013826,-0.312383 0.013658,-0.69433 V 26.033159 L 3.7652,25.974952 C 3.5975728,25.859704 3.3415147,25.630745 3.1285075,25.405648 2.4821557,24.722602 2.0970225,23.84776 1.9663449,22.765763 1.9428578,22.571269 1.938361,22.41862 1.9459676,22.076314 c 0.012324,-0.552544 0.053069,-0.84721 0.2047952,-1.478818 0.096,-0.399637 0.3432371,-1.126809 0.3887145,-1.143307 0.017223,-0.0063 0.9583323,0.8575 1.2186514,1.118481 0.4304596,0.431555 0.7565509,1.02349 0.8999123,1.633539 0.1030744,0.438647 0.097045,0.25898 0.1045952,3.110758 0.00633,2.385896 0.00977,2.64369 0.036268,2.667555 0.016157,0.01445 0.1417357,0.100404 0.2792526,0.190826 0.1375215,0.09043 0.2525002,0.164754 0.255544,0.165187 0.02704,0.0038 1.5360668,-0.944256 1.9654537,-1.234835 C 8.23122,26.474943 8.9046072,25.654337 9.327299,24.634274 9.764273,23.57975 9.9032684,22.327315 9.7170904,21.121886 9.3525954,18.760952 8.1015325,16.534213 6.0720464,14.633954 5.7664933,14.347859 5.3492917,13.992787 5.3186825,13.992787 Z"
       style="fill:#4caf50;fill-opacity:1;stroke-width:0.0191565"
       id="path1-4" />
    <text
       xml:space="preserve"
       style="font-style:normal;font-variant:normal;font-weight:normal;font-stretch:normal;font-size:5.15162px;line-height:0.6;font-family:'FONTSPRING DEMO - Organetto';-inkscape-font-specification:'FONTSPRING DEMO - Organetto, Normal';font-variant-ligatures:normal;font-variant-caps:normal;font-variant-numeric:normal;font-variant-east-asian:normal;text-align:start;word-spacing:0.0935582px;writing-mode:lr-tb;direction:ltr;text-anchor:start;fill:#4caf50;fill-opacity:1;stroke:#000000;stroke-width:0;stroke-linejoin:round;stroke-dasharray:none;paint-order:stroke fill markers"
       x="13.000692"
       y="22.579983"
       id="text1"
       transform="scale(0.98256014,1.0177494)"><tspan
         id="tspan1"
         style="font-style:normal;font-variant:normal;font-weight:normal;font-stretch:normal;font-size:5.15162px;font-family:'FONTSPRING DEMO - Organetto';-inkscape-font-specification:'FONTSPRING DEMO - Organetto, Normal';font-variant-ligatures:normal;font-variant-caps:normal;font-variant-numeric:normal;font-variant-east-asian:normal;writing-mode:lr-tb;fill:#4caf50;fill-opacity:1;stroke-width:0"
         x="13.000692"
         y="22.579983">DIET CRAFT</tspan></text>
  </g>
</svg>
