<?xml version="1.0" encoding="UTF-8" standalone="no"?>
<!-- Created with Inkscape (http://www.inkscape.org/) -->

<svg
   width="94.643997"
   height="146.03806"
   viewBox="0 0 25.041223 38.639235"
   version="1.1"
   id="svg1"
   xmlns="http://www.w3.org/2000/svg"
   xmlns:svg="http://www.w3.org/2000/svg">
  <defs
     id="defs1" />
  <g
     id="layer1"
     transform="translate(-8.6460538,-1.8470485)">
    <path
       d="m 18.73641,3.8862531 c -1.531718,1.4067848 -3.232221,3.2783604 -4.402181,4.8449939 -0.327561,0.4386333 -0.33957,0.4647504 -0.256598,0.561089 0.04784,0.055558 0.525825,0.4896127 1.062155,0.964419 0.536329,0.474811 1.024307,0.909556 1.084403,0.966096 l 0.109251,0.102767 0.556942,-0.716348 c 0.846804,-1.0891262 1.524163,-1.876733 2.336415,-2.7165472 0.679134,-0.7021725 1.883215,-1.8466649 1.943474,-1.8473679 0.07194,-8.106e-4 2.003077,1.8430132 2.514845,2.4012071 3.270947,3.567688 5.455583,7.474814 6.405798,11.456405 0.594058,2.489211 0.672692,4.459004 0.263613,6.606898 -0.604172,3.172445 -2.128305,5.578758 -4.750119,7.499515 -0.278286,0.20389 -1.037686,0.703187 -1.687456,1.109579 l -1.181335,0.738847 -0.02887,-5.286461 c -0.02794,-5.124659 -0.03214,-5.309192 -0.142455,-6.027086 -0.226497,-1.473368 -0.599418,-2.732315 -1.157969,-3.909162 -0.816514,-1.720387 -1.723078,-2.887763 -3.237185,-4.168271 -0.554505,-0.468957 -0.939513,-0.810126 -1.770555,-1.56892 -0.291744,-0.266369 -0.732013,-0.665991 -0.978354,-0.887995 -0.246312,-0.222015 -0.984832,-0.887993 -1.641045,-1.479999 -0.65621,-0.591996 -1.215782,-1.076357 -1.243488,-1.076357 -0.121605,0 -1.172257,1.961894 -1.815767,3.390534 -0.7451845,1.654362 -1.3777527,3.631378 -1.7118109,5.349847 -0.8117174,4.175574 -0.250645,8.252025 1.6032499,11.64834 1.09099,1.998672 2.620813,3.682031 4.605173,5.067403 0.595791,0.415949 1.721102,1.101881 1.809147,1.102742 0.02096,0 0.03865,-0.841263 0.03818,-1.869866 v -1.870172 l -0.23667,-0.156762 c -0.468498,-0.310369 -1.18415,-0.926967 -1.779479,-1.533165 -1.806477,-1.839477 -2.882878,-4.195471 -3.248108,-7.109343 -0.06565,-0.523782 -0.0782,-0.934873 -0.05696,-1.85672 0.03443,-1.488029 0.148324,-2.281579 0.572378,-3.982532 0.268309,-1.076242 0.959307,-3.034552 1.08641,-3.078982 0.04812,-0.01697 2.678426,2.30929 3.405987,3.012125 1.203082,1.162199 2.11447,2.756309 2.515147,4.399203 0.28808,1.181297 0.271215,0.697445 0.292331,8.377427 0.01761,6.425338 0.02739,7.119589 0.10137,7.183859 0.04517,0.03892 0.396135,0.270393 0.780479,0.513904 0.384355,0.243533 0.705708,0.443691 0.714216,0.444857 0.07557,0.01023 4.293124,-2.542929 5.49321,-3.325473 2.605011,-1.69866 4.487047,-3.908593 5.668422,-6.655674 1.22129,-2.839886 1.609764,-6.212756 1.089419,-9.459037 C 32.443296,14.687956 28.946726,8.6912364 23.27455,3.5737435 22.420566,2.8032753 21.254539,1.8470485 21.168991,1.8470485 Z"
       style="fill:#4caf50;fill-opacity:1;stroke-width:0.0525557"
       id="path1-4" />
  </g>
</svg>
